<?xml version="1.0" encoding="utf-8"?>
<!-- Generator: Adobe Illustrator 21.0.2, SVG Export Plug-In . SVG Version: 6.00 Build 0)  -->
<svg version="1.1" id="Layer_1" xmlns="http://www.w3.org/2000/svg" xmlns:xlink="http://www.w3.org/1999/xlink" x="0px" y="0px"
	 viewBox="0 0 50 50" style="enable-background:new 0 0 50 50;" xml:space="preserve">
<style type="text/css">
	.st0{fill:#E1CE2B;}
	.st1{fill:#EDBD2F;}
	.st2{fill:#D04090;}
	.st3{fill:#1668A5;}
	.st4{fill:#BA3C87;}
	.st5{fill:#106AA8;}
	.st6{fill:#AA7E4F;}
	.st7{fill:#C3955B;}
	.st8{fill:#12AEE5;}
	.st9{fill:#C9C9C8;}
	.st10{fill:#FFFFFF;}
	.st11{fill:none;stroke:#EDBD2F;stroke-linecap:round;stroke-linejoin:round;stroke-miterlimit:10;}
	.st12{fill:#B2B1B4;}
	.st13{fill:#996E48;}
	.st14{fill:#F9DA62;}
	.st15{fill:#EDDB99;}
	.st16{fill:#EFD378;}
	.st17{fill:#126AA7;}
	.st18{fill:#E2D588;}
	.st19{fill:#FAFAFA;}
	.st20{clip-path:url(#SVGID_2_);}
	.st21{clip-path:url(#SVGID_4_);fill:#FFFFFF;}
	.st22{clip-path:url(#SVGID_6_);}
	.st23{clip-path:url(#SVGID_8_);fill:#D04090;}
	.st24{clip-path:url(#SVGID_10_);}
	.st25{clip-path:url(#SVGID_12_);fill:#00AABD;}
	.st26{clip-path:url(#SVGID_14_);}
	.st27{clip-path:url(#SVGID_16_);fill:#E1CE2B;}
	.st28{fill:#329866;}
	.st29{fill:#338958;}
	.st30{fill:#3AA36B;}
	.st31{clip-path:url(#SVGID_18_);}
	.st32{clip-path:url(#SVGID_20_);fill:#006597;}
	.st33{clip-path:url(#SVGID_22_);}
	.st34{clip-path:url(#SVGID_24_);fill:#D04090;}
	.st35{clip-path:url(#SVGID_26_);}
	.st36{clip-path:url(#SVGID_28_);fill:#00AABD;}
	.st37{clip-path:url(#SVGID_30_);}
	.st38{clip-path:url(#SVGID_32_);fill:#E1CE2B;}
	.st39{clip-path:url(#SVGID_34_);}
	.st40{clip-path:url(#SVGID_36_);fill:#006597;}
	.st41{clip-path:url(#SVGID_38_);}
	.st42{clip-path:url(#SVGID_40_);fill:#D04090;}
	.st43{clip-path:url(#SVGID_42_);}
	.st44{clip-path:url(#SVGID_44_);fill:#00AABD;}
	.st45{clip-path:url(#SVGID_46_);}
	.st46{clip-path:url(#SVGID_48_);fill:#E1CE2B;}
	.st47{clip-path:url(#SVGID_50_);}
	.st48{clip-path:url(#SVGID_52_);fill:#006597;}
	.st49{clip-path:url(#SVGID_54_);}
	.st50{clip-path:url(#SVGID_56_);fill:#D04090;}
	.st51{clip-path:url(#SVGID_58_);}
	.st52{clip-path:url(#SVGID_60_);fill:#00AABD;}
	.st53{clip-path:url(#SVGID_62_);}
	.st54{clip-path:url(#SVGID_64_);fill:#E1CE2B;}
	.st55{clip-path:url(#SVGID_66_);}
	.st56{clip-path:url(#SVGID_68_);fill:#006597;}
	.st57{clip-path:url(#SVGID_70_);}
	.st58{clip-path:url(#SVGID_72_);fill:#D04090;}
	.st59{clip-path:url(#SVGID_74_);}
	.st60{clip-path:url(#SVGID_76_);fill:#00AABD;}
	.st61{clip-path:url(#SVGID_78_);}
	.st62{clip-path:url(#SVGID_80_);fill:#E1CE2B;}
	.st63{fill:#1469A6;}
	.st64{fill:#E8D8AF;}
	.st65{fill:#F7F7F7;}
	.st66{fill:#FFDA2D;}
</style>
<g>
	<path class="st1" d="M25,5.2c-1.7,0-3.2,0.6-4.4,1.8s-1.8,2.7-1.8,4.4v3.7c0,0.6,0.5,1.1,1.1,1.1h10.2c0.6,0,1.1-0.5,1.1-1.1v-3.7
		C31.2,8,28.4,5.2,25,5.2z M25,7.5c2.2,0,4,1.8,4,4V14H21v-2.6C21,9.2,22.8,7.5,25,7.5z"/>
	<path class="st4" d="M39.9,18.5H10.1l1.7-2.8c0.2-0.4,0.6-0.6,1.1-0.6h24.4c0.4,0,0.8,0.2,1.1,0.6L39.9,18.5z"/>
	<path class="st3" d="M33.2,22L26,20.3c-0.6-0.1-0.9-0.7-0.8-1.3l1.8-7.9c0.1-0.6,0.7-0.9,1.3-0.8l7.2,1.7c0.6,0.1,0.9,0.7,0.8,1.3
		l-1.8,7.9C34.3,21.7,33.8,22.1,33.2,22z"/>
	<path class="st2" d="M24.5,20.7l-9.2,1.1c-0.6,0.1-1.1-0.3-1.2-0.9l-1.2-10.1c-0.1-0.6,0.3-1.1,0.9-1.2L23,8.5
		c0.6-0.1,1.1,0.3,1.2,0.9l1.2,10.1C25.4,20.1,25,20.6,24.5,20.7z"/>
	<path class="st0" d="M30.5,24.6l-8.9,2.1c-0.6,0.1-1.1-0.2-1.3-0.8L18,16.5c-0.1-0.6,0.2-1.1,0.8-1.3l8.9-2.1
		c0.6-0.1,1.1,0.2,1.3,0.8l2.3,9.4C31.4,23.9,31,24.5,30.5,24.6z"/>
	<path class="st7" d="M39.8,45H10.2c-0.8,0-1.5-0.7-1.4-1.5l1.3-25h29.9l1.3,25C41.2,44.3,40.6,45,39.8,45z"/>
	<g>
		<path class="st1" d="M30,22.2c-0.6,0-1.1,0.5-1.1,1.1c0,0.1,0,0.2,0.1,0.3V27c0,2.2-1.8,4-4,4c-2.2,0-4-1.8-4-4v-3.7
			c0-0.6-0.5-1.1-1.1-1.1c-0.6,0-1.1,0.5-1.1,1.1V27c0,3.4,2.8,6.2,6.2,6.2s6.2-2.8,6.2-6.2v-3.7C31.2,22.7,30.7,22.2,30,22.2z"/>
	</g>
</g>
<g>
	<g>
		<defs>
			<path id="SVGID_49_" d="M240,99c-1.4,3.6-4.9,6.1-9.1,6.2c-5.4,0-10.1-4.4-9.9-9.8c0.1-6,4.7-9.8,9.9-9.9
				c4.1-0.1,7.7,2.5,9.2,6.1c1-1.5,2.5-2.6,4.3-3.1c-2.5-4.9-7.6-8.2-13.4-8.2c-8.3,0-15,6.7-15.1,15c0,8.4,6.8,15.2,15.1,15.2
				c5.8,0,11-3.4,13.5-8.3C242.5,101.6,241,100.5,240,99"/>
		</defs>
		<clipPath id="SVGID_2_">
			<use xlink:href="#SVGID_49_"  style="overflow:visible;"/>
		</clipPath>
		<g class="st20">
			<defs>
				<rect id="SVGID_51_" x="-730.4" y="-103.4" width="1422.3" height="862.3"/>
			</defs>
			<clipPath id="SVGID_4_">
				<use xlink:href="#SVGID_51_"  style="overflow:visible;"/>
			</clipPath>
		</g>
	</g>
	<g>
		<defs>
			<path id="SVGID_53_" d="M251.1,95.3c0,2.5-2.1,4.5-4.6,4.5c-2.5,0-4.5-2.1-4.5-4.6c0-2.5,2.1-4.5,4.6-4.5
				C249.1,90.8,251.1,92.8,251.1,95.3"/>
		</defs>
		<clipPath id="SVGID_6_">
			<use xlink:href="#SVGID_53_"  style="overflow:visible;"/>
		</clipPath>
		<g class="st22">
			<defs>
				<rect id="SVGID_55_" x="-730.4" y="-103.4" width="1422.3" height="862.3"/>
			</defs>
			<clipPath id="SVGID_8_">
				<use xlink:href="#SVGID_55_"  style="overflow:visible;"/>
			</clipPath>
		</g>
	</g>
	<g>
		<defs>
			<path id="SVGID_57_" d="M235.7,95.3c0,2.5-2.1,4.5-4.6,4.5c-2.5,0-4.5-2.1-4.5-4.6s2.1-4.5,4.6-4.5
				C233.7,90.7,235.7,92.8,235.7,95.3"/>
		</defs>
		<clipPath id="SVGID_10_">
			<use xlink:href="#SVGID_57_"  style="overflow:visible;"/>
		</clipPath>
		<g class="st24">
			<defs>
				<rect id="SVGID_59_" x="-730.4" y="-103.4" width="1422.3" height="862.3"/>
			</defs>
			<clipPath id="SVGID_12_">
				<use xlink:href="#SVGID_59_"  style="overflow:visible;"/>
			</clipPath>
		</g>
	</g>
	<g>
		<defs>
			<path id="SVGID_61_" d="M239.5,95.6c0.7,1.8,1.6,3.4,2.1,4l0.1,0.1l0,0.1c1.2,1.4,3,2.2,4.8,2.2c1.7,0,3.3-0.7,4.6-1.9
				c1.2-1.2,1.9-2.8,1.9-4.6c0-1.7-0.7-3.3-1.9-4.6c-1.2-1.2-2.8-1.9-4.6-1.9c-2.8,0-5.2,1.8-6.1,4.4v0
				C240.4,93.5,240,94.5,239.5,95.6 M232.4,89c-0.4-0.1-0.8-0.1-1.2-0.1c-3.6,0-6.5,2.9-6.5,6.4c0,1.7,0.7,3.3,1.9,4.6
				c1.2,1.2,2.8,1.9,4.6,1.9c1.8,0,3.6-0.8,4.8-2.1l0.1-0.1c0.5-0.5,1.4-2.2,2.2-4c-0.5-1.1-0.8-2.1-0.9-2.3l0-0.1
				C236.5,91,234.7,89.4,232.4,89 M229.7,102.8c-3.5-0.7-6.2-3.8-6.2-7.5c0-4.2,3.5-7.7,7.7-7.7c3.2,0,6.2,2.1,7.2,5.2l0,0.1
				c0.1,0.3,0.3,0.7,0.4,1.1c0.2-0.4,0.3-0.8,0.4-1.1v0c1.1-3.1,4-5.2,7.3-5.2c2.1,0,4,0.8,5.4,2.3c1.5,1.5,2.2,3.4,2.2,5.4
				c0,2.1-0.8,4-2.3,5.4c-1.5,1.5-3.4,2.2-5.4,2.2c-2.2,0-4.3-0.9-5.7-2.6l0,0c-0.6-0.6-1.3-1.9-2-3.3c-0.6,1.4-1.4,2.7-2,3.3l0,0
				c-1.5,1.6-3.5,2.5-5.7,2.5C230.6,103,230.2,103,229.7,102.8"/>
		</defs>
		<clipPath id="SVGID_14_">
			<use xlink:href="#SVGID_61_"  style="overflow:visible;"/>
		</clipPath>
		<g class="st26">
			<defs>
				<rect id="SVGID_63_" x="-730.4" y="-103.4" width="1422.3" height="862.3"/>
			</defs>
			<clipPath id="SVGID_16_">
				<use xlink:href="#SVGID_63_"  style="overflow:visible;"/>
			</clipPath>
		</g>
	</g>
</g>
</svg>
